<svg width="33" height="32" viewBox="0 0 33 32" fill="none" xmlns="http://www.w3.org/2000/svg">
<path d="M19.7862 10.955C19.7947 11.4968 19.3579 11.9407 18.816 11.9407H15.1787C14.8062 11.9407 14.499 12.2327 14.4803 12.6048L14.3547 15.1001C14.3455 15.2831 14.6133 15.3596 14.713 15.2059V15.2059C14.8534 15.0015 15.024 14.8197 15.2188 14.6668C15.4229 14.5126 15.6507 14.393 15.8932 14.3126C16.1918 14.2248 16.5019 14.1833 16.8129 14.1893C17.294 14.1832 17.7722 14.2668 18.223 14.4358C18.6498 14.597 19.0367 14.8492 19.3572 15.1751C19.6901 15.5141 19.9508 15.9176 20.1236 16.361C20.3107 16.8526 20.4043 17.375 20.3995 17.9012C20.4078 18.4642 20.3089 19.0236 20.1083 19.5492C19.9229 20.0363 19.6354 20.4775 19.2653 20.843C18.8769 21.2212 18.4114 21.5102 17.9011 21.6901C17.3082 21.9109 16.6786 22.0154 16.0465 21.9982C15.5611 22.0024 15.077 21.9455 14.6057 21.8287C14.2073 21.7165 13.8257 21.5507 13.4714 21.3359C13.1584 21.1472 12.8744 20.9138 12.6284 20.6428C12.5952 20.605 12.5624 20.5668 12.5301 20.5283C12.2001 20.1345 12.3104 19.5574 12.7179 19.2445L13.0259 19.0079C13.3491 18.7597 13.8152 18.8387 14.0386 19.1796V19.1796C14.1885 19.3765 14.3637 19.5526 14.5597 19.7033C14.7609 19.8493 14.9832 19.9635 15.2188 20.0421C15.4899 20.1349 15.7757 20.1767 16.0618 20.1653C16.3418 20.1876 16.6234 20.1497 16.8877 20.0541C17.152 19.9585 17.3929 19.8074 17.5946 19.6108C17.9548 19.1824 18.1361 18.6304 18.1004 18.0706V17.9782C18.1215 17.7147 18.0851 17.4496 17.9937 17.2016C17.9024 16.9536 17.7582 16.7287 17.5714 16.5424C17.3846 16.3562 17.1596 16.2131 16.9121 16.1233C16.6646 16.0334 16.4006 15.9989 16.1385 16.0222C15.727 16.0021 15.3182 16.0981 14.9582 16.2994C14.8381 16.3689 14.7231 16.4467 14.6141 16.532C14.3495 16.7391 14.0224 16.8714 13.6898 16.8236L13.3161 16.77C12.7985 16.6957 12.4255 16.2351 12.4605 15.7133L12.7805 10.9332C12.8157 10.408 13.2519 10 13.7783 10H18.816C19.3459 10 19.7778 10.4251 19.7862 10.955V10.955Z" fill="#F8F3F7"/>
<path d="M15.5888 0.00470022C10.8784 0.129126 6.70125 2.27992 3.85723 5.62165L1.5109 3.29311C1.3856 3.17027 1.22673 3.08728 1.05434 3.05459C0.88194 3.0219 0.703724 3.04098 0.542148 3.10941C0.380573 3.17784 0.24287 3.29257 0.146393 3.43913C0.0499169 3.5857 -0.00101538 3.75755 1.534e-05 3.93301V11.5586C1.534e-05 12.0563 0.391069 12.4473 0.888774 12.4473H8.51432C9.3142 12.4473 9.70526 11.4875 9.13645 10.9364L6.3813 8.1635C8.6743 5.3728 12.1227 3.55973 15.9977 3.55973C23.6765 3.55973 29.7556 10.5632 28.1914 18.5086C27.2316 23.4324 23.1966 27.3607 18.2729 28.2317C11.5183 29.4404 5.51032 25.1388 3.96388 19.0597C3.75058 18.3131 3.03957 17.7799 2.25746 17.7799C1.10208 17.7799 0.231092 18.8642 0.515495 19.9662C2.27524 26.8808 8.5321 32 15.9977 32C24.9919 32 32.2442 24.5878 31.9953 15.5402C31.7465 6.86591 24.2631 -0.208602 15.5888 0.00470022Z" fill="#F8F3F7"/>
</svg>
