<svg width="32" height="32" viewBox="0 0 32 32" fill="none" xmlns="http://www.w3.org/2000/svg">
<g clip-path="url(#clip0_162_17)">
<path d="M32 8.16534L32.0014 8.03601C32.0014 7.04534 31.884 6.08268 31.664 5.16134L31.6814 5.24534C31.2837 3.57374 30.2488 2.12358 28.7974 1.20401L28.7707 1.18801C28.0231 0.704015 27.1855 0.376116 26.308 0.224009L26.268 0.218676C25.584 0.0989278 24.8917 0.0320633 24.1974 0.0186761H24.1827C24.1294 0.0186761 24.072 0.00534277 24.0174 0.00134277H7.98402C7.78135 0.0146761 7.58402 0.0240094 7.37735 0.0360094C6.35727 0.0548733 5.34727 0.241826 4.38802 0.589343L4.45335 0.569343C3.60442 0.89101 2.82958 1.38158 2.17573 2.01137C1.52188 2.64116 1.00261 3.39706 0.649352 4.23334L0.633352 4.27734C0.406686 4.82268 0.237352 5.45734 0.153352 6.11734L0.149352 6.15468C0.0813522 6.61201 0.0333522 7.15601 0.0160189 7.70801V7.72934C0.0160189 7.77201 0.00668555 7.81201 0.00268555 7.85334V24.152C0.0160189 24.3387 0.0253522 24.5293 0.0386855 24.7173C0.0653522 25.8653 0.308019 26.948 0.726686 27.9387L0.705352 27.8813C1.10035 28.7763 1.68711 29.5736 2.42414 30.2169C3.16118 30.8601 4.03051 31.3337 4.97069 31.604L5.01735 31.616C5.52002 31.764 6.10669 31.872 6.71202 31.9187L6.74135 31.92C7.48135 31.9907 8.22135 32 8.96402 32H23.668C24.4067 32 25.1334 31.9507 25.8454 31.8573L25.7614 31.8667C26.8645 31.748 27.9245 31.3722 28.856 30.7693L28.828 30.7867C29.9193 30.0788 30.7835 29.0715 31.3174 27.8853L31.3347 27.8427C31.556 27.332 31.728 26.7373 31.8227 26.1187L31.828 26.0773C31.964 25.1729 32.0216 24.2584 32 23.344V8.16934V8.16534ZM23.4347 13.4853V21.1013L23.436 21.212C23.436 21.7547 23.316 22.2707 23.1 22.732L23.1094 22.7093C22.9318 23.0793 22.6763 23.4064 22.3602 23.6681C22.0442 23.9298 21.6752 24.1199 21.2787 24.2253L21.2587 24.2293C20.7985 24.3626 20.324 24.44 19.8454 24.46H19.832C19.7934 24.4627 19.7494 24.4627 19.704 24.4627C19.1389 24.4632 18.5903 24.2718 18.1481 23.9198C17.7059 23.5679 17.3964 23.0762 17.2701 22.5253C17.1438 21.9744 17.2084 21.397 17.4531 20.8876C17.6979 20.3782 18.1084 19.967 18.6174 19.7213L18.632 19.7147C19.0227 19.528 19.4787 19.3787 19.9534 19.288L19.9894 19.2827C20.4934 19.1733 21 19.0787 21.5014 18.9627C21.6719 18.934 21.8293 18.8526 21.9512 18.7299C22.0732 18.6072 22.1537 18.4494 22.1814 18.2787V18.2747C22.1995 18.1919 22.2084 18.1074 22.208 18.0227V10.7587C22.2071 10.673 22.195 10.5879 22.172 10.5053L22.1734 10.512C22.1555 10.4203 22.1049 10.3381 22.0312 10.2808C21.9574 10.2234 21.8653 10.1947 21.772 10.2H21.7734C21.536 10.2173 21.32 10.248 21.108 10.2933L21.14 10.288C20.1267 10.488 19.1134 10.6907 18.1 10.896L13.1667 11.8933C13.1454 11.8933 13.124 11.9067 13.1027 11.9107C12.9479 11.9314 12.8072 12.0113 12.7102 12.1337C12.6132 12.256 12.5675 12.4113 12.5827 12.5667V12.564V23.1387L12.584 23.2653C12.584 23.8093 12.4787 24.328 12.2854 24.8013L12.2947 24.7733C12.1235 25.1765 11.8617 25.5347 11.5296 25.8203C11.1976 26.1058 10.8042 26.3111 10.38 26.42L10.36 26.424C9.89731 26.5599 9.41932 26.6369 8.93735 26.6533H8.92669C8.32333 26.6876 7.72855 26.4979 7.25638 26.1208C6.78421 25.7436 6.46788 25.2054 6.36802 24.6093L6.36669 24.5947C6.26258 24.0295 6.35721 23.4458 6.6345 22.9425C6.9118 22.4392 7.35469 22.0473 7.88802 21.8333L7.90535 21.828C8.36731 21.6459 8.84606 21.5097 9.33469 21.4213L9.38269 21.4147C9.76535 21.3347 10.1494 21.26 10.5294 21.1787C10.7515 21.1466 10.9547 21.0355 11.1016 20.8658C11.2486 20.6961 11.3294 20.4792 11.3294 20.2547V20.2253V20.2267V8.17334C11.3294 8.00134 11.3494 7.83468 11.388 7.67468L11.3854 7.68934C11.4276 7.5175 11.518 7.3613 11.646 7.23917C11.7741 7.11704 11.9344 7.03406 12.108 7.00001L12.1134 6.99868C12.4534 6.91068 12.8 6.84934 13.1454 6.77868C14.1227 6.57868 15.1 6.37868 16.0787 6.18668L19.1054 5.57334C19.9987 5.39468 20.892 5.21334 21.7854 5.04001C22.0267 4.98401 22.328 4.93468 22.6347 4.90134L22.6707 4.89868C22.7622 4.88725 22.8552 4.89522 22.9435 4.92208C23.0317 4.94895 23.1134 4.9941 23.1831 5.05459C23.2527 5.11509 23.3089 5.18958 23.3479 5.27321C23.3869 5.35684 23.4078 5.44775 23.4094 5.54001C23.42 5.62934 23.4254 5.73201 23.4254 5.83601V13.48L23.4347 13.4853Z" fill="#F8F3F7"/>
</g>
<defs>
<clipPath id="clip0_162_17">
<rect width="32" height="32" fill="white"/>
</clipPath>
</defs>
</svg>
